<svg width="23" height="28" viewBox="0 0 23 28" fill="none" xmlns="http://www.w3.org/2000/svg">
    <path d="M19.0218 14.8792C18.99 11.3444 21.9174 9.62479 22.0512 9.54473C20.3933 7.12866 17.8236 6.79855 16.9206 6.77223C14.7623 6.54521 12.6688 8.06307 11.5694 8.06307C10.448 8.06307 8.75494 6.79417 6.93024 6.83145C4.58216 6.86765 2.38549 8.22648 1.18073 10.3366C-1.30561 14.639 0.548723 20.9616 2.93082 24.4393C4.12242 26.1436 5.51481 28.0442 7.33732 27.9773C9.12033 27.9049 9.78635 26.8422 11.938 26.8422C14.07 26.8422 14.6954 27.9773 16.5541 27.9345C18.4677 27.9049 19.6724 26.2236 20.8223 24.5051C22.1994 22.554 22.7524 20.6304 22.7743 20.5317C22.7304 20.5163 19.0591 19.1147 19.0218 14.8792ZM15.5106 4.48448C16.4696 3.28577 17.1258 1.65495 16.9436 0C15.5556 0.0614162 13.8198 0.959628 12.8202 2.13202C11.9358 3.16513 11.1458 4.85846 11.3499 6.45089C12.9091 6.56714 14.5099 5.66455 15.5106 4.48448Z" fill="white"/>
</svg>
