<svg width="137" height="24" viewBox="0 0 137 24" fill="none" xmlns="http://www.w3.org/2000/svg">
    <path d="M18.8137 0H7.80349C4.21946 0 1.30859 2.91087 1.30859 6.4949V17.5051C1.30859 21.0891 4.21946 24 7.80349 24H18.8137C22.3977 24 25.3086 21.0891 25.3086 17.5051V6.4949C25.2713 2.91087 22.3578 0 18.8137 0ZM23.18 17.4679C23.18 19.8945 21.2403 21.8342 18.8137 21.8342H7.80349C6.01281 21.8342 4.48287 20.7512 3.8097 19.184L4.18221 18.8488L4.96713 16.5712L3.4372 13.9583V6.45499C3.4372 4.02838 5.37689 2.08869 7.80349 2.08869H18.8137C21.2403 2.08869 23.18 4.06563 23.18 6.45499V17.4679Z"
          fill="#E6E7E8"/>
    <path d="M20.6794 17.0581C20.9029 17.1326 21.1636 17.1698 21.4643 17.1698C22.6217 17.1698 23.1805 16.7228 23.1805 16.1614C23.1805 15.5282 22.2838 15.5282 22.2093 14.9295C22.0976 14.2191 22.1721 11.0474 23.404 9.33126L24.2262 9.70377C24.2262 9.70377 24.4497 9.85277 24.7477 9.81552C24.9339 9.81552 25.1202 9.74102 25.3064 9.51751C25.7534 9.03326 27.0226 7.42616 27.435 6.5694C27.5468 6.34589 25.8306 4.21729 24.8594 3.43503C24.1889 2.91352 23.3667 2.57561 22.4328 2.57561C20.7539 2.57561 19.2984 3.65853 18.7743 5.15122C17.6914 5.93614 15.5654 7.16541 13.2878 7.76408C10.6377 8.4745 7.91308 7.80133 6.04789 7.91308C3.65854 8.02483 2.24035 9.77827 2.27761 11.7951C2.35211 13.8492 3.73304 15.7144 3.73304 17.6541C3.73304 19.184 2.50111 19.8572 1.64169 19.8572C0.633259 19.8572 0.558758 19.4474 0.260754 19.4474C0.149002 19.4474 0 19.5592 0 19.7082C0 20.2297 1.26918 20.7166 1.97694 20.7166C3.87938 20.7166 4.6643 19.3729 4.6643 19.3729C4.6643 19.3729 5.14856 20.7911 7.01641 20.7911C8.50909 20.7911 9.14501 20.0807 9.14501 19.4847C9.14501 19.0004 8.84701 18.7743 8.6235 18.5135C8.3255 18.1038 8.3255 17.6168 8.3255 17.6168C8.3255 17.6168 8.66075 17.6541 9.14767 17.6541C10.2306 17.6541 10.5659 17.2071 10.5659 16.7947C10.5659 16.2359 9.9326 16.2732 9.9326 15.3765C9.9326 14.6661 10.3051 14.4426 10.643 14.4426C11.0155 14.4426 12.3965 14.5916 14.078 14.7406C14.6368 14.7778 16.055 15.3366 16.055 17.5024V18.2874C16.055 19.5938 16.5765 21.2355 18.9286 21.2355C20.533 21.2355 21.4297 20.3388 21.4297 19.7055C21.4297 19.2958 21.0572 19.1095 20.871 18.8461C20.4186 18.1011 20.6794 17.0581 20.6794 17.0581Z"
          fill="#FF671B"/>
    <path d="M24.5244 7.57784C24.3754 7.57784 24.2637 7.68959 24.2637 7.83859C24.2637 7.98759 24.3754 8.09934 24.5244 8.09934C24.6734 8.09934 24.7852 7.98759 24.7852 7.83859C24.8224 7.68959 24.6734 7.57784 24.5244 7.57784Z"
          fill="white"/>
    <path d="M25.4951 6.75565C25.3461 6.75565 25.2344 6.8674 25.2344 7.0164C25.2344 7.1654 25.3461 7.27716 25.4951 7.27716C25.6441 7.27716 25.7559 7.1654 25.7559 7.0164C25.7559 6.8674 25.6441 6.75565 25.4951 6.75565Z"
          fill="white"/>
    <path d="M25.9442 5.82173C25.8325 5.82173 25.7207 5.89623 25.7207 6.04523C25.7207 6.15699 25.7952 6.26874 25.9442 6.26874C26.056 6.26874 26.1677 6.19424 26.1677 6.04523C26.1677 5.93614 26.056 5.82173 25.9442 5.82173Z"
          fill="white"/>
    <path d="M18.0285 7.12816C18.1775 7.12816 18.3265 6.97916 18.3265 6.83015C18.3265 6.68115 18.1775 6.53215 18.0285 6.53215C17.8795 6.53215 17.7305 6.68115 17.7305 6.83015C17.7305 7.01641 17.8795 7.12816 18.0285 7.12816Z"
          fill="white"/>
    <path d="M19.1867 14.3707C19.0377 14.3707 18.8887 14.5197 18.8887 14.6687C18.8887 14.8177 19.0377 14.9667 19.1867 14.9667C19.3357 14.9667 19.4847 14.8177 19.4847 14.6687C19.4847 14.4825 19.3357 14.3707 19.1867 14.3707Z"
          fill="white"/>
    <path d="M20.9386 14.6687C20.7896 14.6687 20.6406 14.8177 20.6406 14.9668C20.6406 15.1158 20.7896 15.2648 20.9386 15.2648C21.0876 15.2648 21.2366 15.1158 21.2366 14.9668C21.2393 14.7805 21.1275 14.6687 20.9386 14.6687Z"
          fill="white"/>
    <path d="M19.4093 11.6461C19.2603 11.6461 19.1113 11.7951 19.1113 11.9441C19.1113 12.0931 19.2603 12.2421 19.4093 12.2421C19.5583 12.2421 19.7073 12.0931 19.7073 11.9441C19.7073 11.7951 19.5956 11.6461 19.4093 11.6461Z"
          fill="white"/>
    <path d="M20.4562 9.62927C20.6052 9.62927 20.7542 9.48027 20.7542 9.33127C20.7542 9.18227 20.6052 9.03326 20.4562 9.03326C20.3072 9.03326 20.1582 9.18227 20.1582 9.33127C20.1582 9.48027 20.27 9.62927 20.4562 9.62927Z"
          fill="white"/>
    <path d="M15.7922 8.43459C15.9412 8.43459 16.0902 8.28559 16.0902 8.13659C16.0902 7.98759 15.9412 7.83858 15.7922 7.83858C15.6432 7.83858 15.4942 7.98759 15.4942 8.13659C15.4915 8.28559 15.6405 8.43459 15.7922 8.43459Z"
          fill="white"/>
    <path d="M17.4699 13.7348C17.3209 13.7348 17.1719 13.8838 17.1719 14.0328C17.1719 14.1818 17.3209 14.3308 17.4699 14.3308C17.6189 14.3308 17.7679 14.1818 17.7679 14.0328C17.7679 13.8838 17.6189 13.7348 17.4699 13.7348Z"
          fill="white"/>
    <path d="M16.6496 9.89002C16.7986 9.89002 16.9476 9.74102 16.9476 9.59202C16.9476 9.44301 16.7986 9.29401 16.6496 9.29401C16.5006 9.29401 16.3516 9.44301 16.3516 9.59202C16.3516 9.74102 16.4633 9.89002 16.6496 9.89002Z"
          fill="white"/>
    <path d="M14.7453 11.5716C14.5963 11.5716 14.4473 11.7206 14.4473 11.8696C14.4473 12.0186 14.5963 12.1676 14.7453 12.1676C14.8943 12.1676 15.0433 12.0186 15.0433 11.8696C15.0433 11.7206 14.9315 11.5716 14.7453 11.5716Z"
          fill="white"/>
    <path d="M17.8429 11.271C17.9919 11.271 18.1409 11.122 18.1409 10.973C18.1409 10.824 17.9919 10.675 17.8429 10.675C17.6939 10.675 17.5449 10.824 17.5449 10.973C17.5449 11.122 17.6567 11.271 17.8429 11.271Z"
          fill="white"/>
    <path d="M13.1027 8.5836C12.9537 8.5836 12.8047 8.7326 12.8047 8.8816C12.8047 9.0306 12.9537 9.1796 13.1027 9.1796C13.2517 9.1796 13.4007 9.0306 13.4007 8.8816C13.4007 8.73526 13.2889 8.5836 13.1027 8.5836Z"
          fill="white"/>
    <path d="M13.7746 10.1534C13.6256 10.1534 13.4766 10.3024 13.4766 10.4514C13.4766 10.6004 13.6256 10.7495 13.7746 10.7495C13.9236 10.7495 14.0726 10.6004 14.0726 10.4514C14.0726 10.2652 13.9236 10.1534 13.7746 10.1534Z"
          fill="white"/>
    <path d="M15.9406 12.7663C15.7916 12.7663 15.6426 12.9153 15.6426 13.0643C15.6426 13.2133 15.7916 13.3623 15.9406 13.3623C16.0896 13.3623 16.2386 13.2133 16.2386 13.0643C16.2386 12.8781 16.1268 12.7663 15.9406 12.7663Z"
          fill="white"/>
    <path d="M19.0363 8.5091C19.1853 8.5091 19.3343 8.3601 19.3343 8.2111C19.3343 8.06209 19.1853 7.91309 19.0363 7.91309C18.8873 7.91309 18.7383 8.06209 18.7383 8.2111C18.7383 8.39735 18.85 8.5091 19.0363 8.5091Z"
          fill="white"/>
    <path d="M21.2414 12.2049C21.0924 12.2049 20.9434 12.3539 20.9434 12.5029C20.9434 12.6519 21.0924 12.8009 21.2414 12.8009C21.3904 12.8009 21.5394 12.6519 21.5394 12.5029C21.5021 12.3539 21.3904 12.2049 21.2414 12.2049Z"
          fill="white"/>
    <path d="M21.9855 9.77827C21.8365 9.77827 21.6875 9.92728 21.6875 10.0763C21.6875 10.2253 21.8365 10.3743 21.9855 10.3743C22.1345 10.3743 22.2835 10.2253 22.2835 10.0763C22.2835 9.92728 22.1345 9.77827 21.9855 9.77827Z"
          fill="white"/>
    <path d="M21.7628 7.31707C21.6138 7.31707 21.4648 7.46607 21.4648 7.61508C21.4648 7.76408 21.6138 7.91308 21.7628 7.91308C21.9119 7.91308 22.0609 7.76408 22.0609 7.61508C22.0609 7.46607 21.9491 7.31707 21.7628 7.31707Z"
          fill="white"/>
    <path d="M23.1789 7.80133C23.0299 7.80133 22.8809 7.95033 22.8809 8.09933C22.8809 8.24834 23.0299 8.39734 23.1789 8.39734C23.3279 8.39734 23.4769 8.24834 23.4769 8.09933C23.4769 7.91308 23.3651 7.80133 23.1789 7.80133Z"
          fill="white"/>
    <path d="M20.716 6.4204C20.567 6.4204 20.418 6.5694 20.418 6.71841C20.418 6.86741 20.567 7.01641 20.716 7.01641C20.865 7.01641 21.014 6.86741 21.014 6.71841C21.014 6.53215 20.865 6.4204 20.716 6.4204Z"
          fill="white"/>
    <path d="M20.1203 5.30022C19.9713 5.30022 19.8223 5.44922 19.8223 5.59822C19.8223 5.74723 19.9713 5.89623 20.1203 5.89623C20.2693 5.89623 20.4183 5.74723 20.4183 5.59822C20.4183 5.41197 20.3065 5.30022 20.1203 5.30022Z"
          fill="white"/>
    <path d="M21.3546 5.30022C21.2056 5.30022 21.0566 5.44922 21.0566 5.59822C21.0566 5.74723 21.2056 5.89623 21.3546 5.89623C21.5036 5.89623 21.6527 5.74723 21.6527 5.59822C21.6527 5.41197 21.5409 5.30022 21.3546 5.30022Z"
          fill="white"/>
    <path d="M19.9355 4.47805C19.9355 4.32904 20.0473 4.21729 20.1963 4.21729C20.3453 4.21729 20.4571 4.32904 20.4571 4.47805C20.4571 4.62705 20.3453 4.7388 20.1963 4.7388C20.0473 4.70421 19.9355 4.59246 19.9355 4.47805Z"
          fill="white"/>
    <path d="M20.6797 3.54679C20.6797 3.43504 20.7542 3.36054 20.8659 3.36054C20.9777 3.36054 21.0522 3.43504 21.0522 3.54679C21.0522 3.65855 20.9777 3.73305 20.8659 3.73305C20.7914 3.73305 20.6797 3.65855 20.6797 3.54679Z"
          fill="white"/>
    <path d="M21.6484 3.13436C21.6484 3.05986 21.7229 2.98536 21.7974 2.98536C21.8719 2.98536 21.9464 3.05986 21.9464 3.13436C21.9464 3.20886 21.8719 3.28336 21.7974 3.28336C21.7229 3.28602 21.6484 3.21152 21.6484 3.13436Z"
          fill="white"/>
    <path d="M25.7559 5.18847C25.7559 5.11397 25.8304 5.03947 25.9049 5.03947C25.9794 5.03947 26.0539 5.11397 26.0539 5.18847C26.0539 5.26297 25.9794 5.33747 25.9049 5.33747C25.8304 5.33747 25.7559 5.26297 25.7559 5.18847Z"
          fill="white"/>
    <path d="M25.5332 8.17384C25.5332 8.09934 25.6077 8.02484 25.6822 7.98759C25.7567 7.98759 25.8312 8.06209 25.8685 8.13659C25.8685 8.21109 25.794 8.28559 25.7195 8.32284C25.6077 8.32284 25.5332 8.24834 25.5332 8.17384Z"
          fill="white"/>
    <path d="M25.9805 7.61509C25.9805 7.54059 26.055 7.46608 26.1295 7.42883C26.204 7.42883 26.2785 7.50333 26.3157 7.57783C26.3157 7.65234 26.2412 7.72684 26.1667 7.76409C26.055 7.76409 25.9805 7.68959 25.9805 7.61509Z"
          fill="white"/>
    <path d="M25.084 8.73526C25.084 8.66075 25.1585 8.58625 25.233 8.549C25.3075 8.549 25.382 8.6235 25.4192 8.69801C25.4192 8.77251 25.3447 8.84701 25.2702 8.88426C25.1585 8.92151 25.084 8.84701 25.084 8.73526Z"
          fill="white"/>
    <path d="M24.5996 9.29401C24.5996 9.21951 24.6741 9.14501 24.7486 9.10776C24.8231 9.10776 24.8976 9.18226 24.9349 9.25676C24.9349 9.33126 24.8604 9.40576 24.7859 9.44302C24.6741 9.44302 24.5996 9.36851 24.5996 9.29401Z"
          fill="white"/>
    <path d="M26.3516 7.01641C26.3516 6.94191 26.4261 6.8674 26.5006 6.83015C26.5751 6.83015 26.6496 6.90465 26.6496 6.97916C26.6496 7.05366 26.5751 7.12816 26.5006 7.16541C26.4261 7.16541 26.3516 7.12816 26.3516 7.01641Z"
          fill="white"/>
    <path d="M26.6523 6.53215C26.6523 6.45764 26.7268 6.38314 26.8013 6.34589C26.8758 6.34589 26.9503 6.42039 26.9876 6.4949C26.9876 6.5694 26.9131 6.6439 26.8386 6.68115C26.7268 6.68115 26.6523 6.60665 26.6523 6.53215Z"
          fill="white"/>
    <path d="M8.02802 19.1468C8.02802 19.1468 6.94509 17.2444 7.69276 15.3393C8.51493 13.2107 10.9389 13.4741 10.9389 13.4741C10.5664 13.2878 10.1167 13.2133 9.6697 13.2133C7.99077 13.2878 6.72159 14.7805 6.79609 16.6084C6.79609 17.6541 7.28034 18.5508 8.02802 19.1468Z"
          fill="white"/>
    <path d="M3.99767 13.1016C3.51341 12.6173 3.25 11.9814 3.25 11.2736C3.25 9.85544 4.40743 8.77251 5.82561 8.69801C7.31829 8.62351 10.0057 9.07051 11.7218 8.84701C12.3178 11.4971 14.968 14.11 17.0593 15.2674C14.5955 14.1845 12.2433 11.6834 10.1547 10.5286C7.9888 9.33393 5.82561 9.14768 4.70543 10.1934C3.73692 11.0847 3.81142 12.3539 3.99767 13.1016Z"
          fill="white"/>
    <path d="M10.0778 15.8262C10.2268 16.6111 8.80859 16.8346 8.80859 16.8346C10.0778 17.0581 10.5248 16.3876 10.5248 16.3876L10.0778 15.8262Z"
          fill="white"/>
    <path d="M20.1205 16.2359C20.1205 16.2359 19.2983 17.3933 19.8597 19.5193C19.5245 19.8545 18.8886 20.1153 18.4043 20.267C18.4043 20.267 20.3067 20.5277 20.9054 19.482C19.7453 18.588 20.0832 16.3849 20.1205 16.2359Z"
          fill="white"/>
    <path d="M23.9279 4.06829C23.1802 3.91929 22.5097 4.32905 22.3979 4.92772C22.2862 5.52372 22.8077 6.15965 23.5181 6.2714C24.2658 6.4204 24.9363 6.01064 25.048 5.41197C25.1571 4.81596 24.6729 4.2173 23.9279 4.06829ZM24.8591 5.37472C24.7846 5.82173 24.3004 6.08514 23.7762 6.00798C23.2547 5.89623 22.8795 5.48647 22.954 5.03681C23.0285 4.5898 23.5128 4.32638 24.0369 4.40355C24.5611 4.51796 24.9336 4.96496 24.8591 5.37472Z"
          fill="white"/>
    <path d="M23.853 5.18847C23.8902 4.96497 24.151 4.77872 24.449 4.85322C24.747 4.89047 24.9332 5.15122 24.896 5.37472C24.8587 5.59823 24.598 5.78448 24.3 5.70998C24.002 5.67273 23.813 5.44922 23.853 5.18847Z"
          fill="white"/>
    <path d="M22.2838 15.153C22.7308 16.0124 21.2754 16.3104 21.2754 16.3104C22.2838 16.4967 22.8798 15.8262 22.8798 15.5628C22.659 14.6687 22.4328 15.3393 22.2838 15.153Z"
          fill="white"/>
    <path d="M25.3467 4.74146C24.9742 4.1082 24.3011 3.65853 23.4816 3.65853C22.7711 3.65853 22.1379 4.03104 21.7281 4.55521C21.6164 4.70421 21.3929 4.74146 21.2439 4.59246C21.0949 4.48071 21.0949 4.2572 21.2066 4.1082C21.6536 3.58669 22.3268 3.28603 23.0718 3.28603C24.1148 3.28603 24.9716 3.88204 25.3467 4.74146Z"
          fill="white"/>
    <path d="M23.0317 9.14501C22.2841 9.10776 21.2783 8.73526 20.3816 8.06208C19.5967 7.50333 19.0379 6.83016 18.7399 6.1969C18.6654 6.08515 18.7027 5.93614 18.8144 5.89889C18.9262 5.82439 19.0752 5.86164 19.1124 5.97339C19.4477 6.6439 19.9346 7.39157 20.6796 7.98758C21.4645 8.6235 22.2841 9.03326 23.0317 9.14501Z"
          fill="white"/>
    <path d="M22.0233 11.2337C20.6424 11.1592 19.0752 10.4115 17.8432 9.17961C17.2845 8.5836 16.8348 7.94768 16.5368 7.35167C16.4623 7.23992 16.4996 7.09092 16.6113 7.05367C16.7231 6.97917 16.8721 7.01642 16.9093 7.12817C17.2818 7.87584 17.7315 8.69535 18.4392 9.44302C19.5222 10.4887 20.8286 11.0847 22.0233 11.2337Z"
          fill="white"/>
    <path d="M14.2592 8.09934C14.371 8.06208 14.52 8.13659 14.5572 8.24834C15.1532 9.70377 15.4539 10.3024 16.5714 11.4945C18.1014 13.0989 20.3045 13.6976 21.4991 13.6976C20.4535 13.7721 17.9151 13.3251 16.1244 11.4572C15.116 10.4115 14.4082 9.3286 14.0703 8.36009C14.073 8.28559 14.1475 8.13659 14.2592 8.09934Z"
          fill="white"/>
    <path d="M22.357 6.34591C22.655 6.53216 23.1047 6.71841 23.6635 6.75566C24.8954 6.79291 25.3424 5.82174 25.3797 5.41198C25.3797 5.67273 25.0444 7.05367 23.5145 7.05367C22.9185 7.05367 22.4688 6.94191 22.1335 6.71841C22.0218 6.64391 21.9845 6.53216 22.0218 6.42041C22.0963 6.34591 22.2453 6.27141 22.357 6.34591Z"
          fill="white"/>
    <path d="M34.7894 16.9836C34.7894 17.4306 34.5286 17.8058 34.1561 17.9175C34.5659 18.0665 34.9038 18.439 34.9038 18.9259C34.9038 19.7854 34.3078 20.1951 33.2248 20.1951H31.2852V15.7171H33.1131C34.1534 15.7144 34.7894 16.1242 34.7894 16.9836ZM32.1765 17.5796H33.1104C33.5574 17.5796 33.8954 17.5051 33.8954 17.0581C33.8954 16.6483 33.5601 16.5366 33.1104 16.5366H32.1765V17.5796ZM32.1765 19.4075H33.1849C33.6692 19.4075 33.9699 19.2958 33.9699 18.8488C33.9699 18.439 33.6719 18.3273 33.1849 18.3273H32.1765V19.4075Z"
          fill="#6D6F71"/>
    <path d="M38.8177 20.2297L38.4452 19.184H36.5428L36.1703 20.2297H35.2363L36.9898 15.7517H38.0727L39.8261 20.2297H38.8177ZM38.1099 18.3273L37.4767 16.6111L36.8062 18.3273H38.1099Z"
          fill="#6D6F71"/>
    <path d="M43.5232 20.2297L41.2456 17.2071V20.2297H40.3516V15.7144H41.1711L43.4487 18.737V15.7144H44.3454V20.2297H43.5232Z"
          fill="#6D6F71"/>
    <path d="M46.2463 18.3645V20.2297H45.3496V15.7144H46.2463V17.5424H46.656L48.1487 15.7144H49.2689L47.4037 17.9149L49.4179 20.2297H48.2605L46.656 18.3645H46.2463Z"
          fill="#6D6F71"/>
    <path d="M55.9112 17.9894C55.9112 19.333 54.9401 20.3042 53.5591 20.3042C52.1782 20.3042 51.207 19.333 51.207 17.9894C51.207 16.6457 52.1782 15.6745 53.5591 15.6745C54.9401 15.6399 55.9112 16.6457 55.9112 17.9894ZM52.141 17.9894C52.141 18.8488 52.737 19.4448 53.5591 19.4448C54.3813 19.4448 54.9773 18.8488 54.9773 17.9894C54.9773 17.1299 54.3813 16.5339 53.5591 16.5339C52.7396 16.4967 52.141 17.0953 52.141 17.9894Z"
          fill="#6D6F71"/>
    <path d="M57.5911 18.4018V20.2297H56.7344V15.7144H60.0177V16.5339H57.5911V17.5796H59.8687V18.4018H57.5911Z"
          fill="#6D6F71"/>
    <path d="M66.2522 16.3477L65.6189 16.9809C65.3582 16.6829 64.9856 16.4967 64.536 16.4967C63.7138 16.4967 63.1178 17.0927 63.1178 17.9894C63.1178 18.9233 63.7511 19.482 64.4987 19.482C65.2464 19.482 65.6562 19.1468 65.7679 18.5109H64.6105V17.7632H66.6646C66.6646 17.8377 66.6646 17.9494 66.6646 18.0239C66.6646 19.3676 65.7307 20.3388 64.4615 20.3388C63.2296 20.3388 62.1094 19.4421 62.1094 18.0239C62.1094 16.6803 63.1178 15.7091 64.4615 15.7091C65.281 15.6399 65.877 15.9007 66.2522 16.3477Z"
          fill="#6D6F71"/>
    <path d="M67.5234 20.2297V15.7144H70.8441V16.5339H68.4174V17.5424H70.7323V18.3645H68.4174V19.4076H70.8813V20.2297H67.5234Z"
          fill="#6D6F71"/>
    <path d="M76.253 17.9894C76.253 19.333 75.2819 20.3042 73.9009 20.3042C72.52 20.3042 71.5488 19.333 71.5488 17.9894C71.5488 16.6457 72.52 15.6745 73.9009 15.6745C75.2819 15.6399 76.253 16.6457 76.253 17.9894ZM72.4828 17.9894C72.4828 18.8488 73.0788 19.4448 73.9009 19.4448C74.7231 19.4448 75.3191 18.8488 75.3191 17.9894C75.3191 17.1299 74.7231 16.5339 73.9009 16.5339C73.0814 16.4967 72.4828 17.0953 72.4828 17.9894Z"
          fill="#6D6F71"/>
    <path d="M80.5839 17.0954C80.5839 17.8058 80.0996 18.3273 79.2402 18.4018H79.203L80.5839 20.1925H79.501L78.1945 18.4018H77.9338V20.1925H77.0371V15.7144H78.9395C80.0251 15.7144 80.5839 16.2359 80.5839 17.0954ZM77.971 17.6541H78.9422C79.4265 17.6541 79.6899 17.4679 79.6899 17.0954C79.6899 16.7229 79.4291 16.5366 78.9422 16.5366H77.971V17.6541Z"
          fill="#6D6F71"/>
    <path d="M85.2502 16.3477L84.617 16.9809C84.3562 16.6829 83.9837 16.4967 83.534 16.4967C82.7119 16.4967 82.1158 17.0927 82.1158 17.9894C82.1158 18.9233 82.7491 19.482 83.4968 19.482C84.2445 19.482 84.6542 19.1468 84.766 18.5109H83.6085V17.7632H85.6626C85.6626 17.8377 85.6626 17.9494 85.6626 18.0239C85.6626 19.3676 84.7287 20.3388 83.4595 20.3388C82.2276 20.3388 81.1074 19.4421 81.1074 18.0239C81.1074 16.6803 82.1158 15.7091 83.4595 15.7091C84.279 15.6399 84.8751 15.9007 85.2502 16.3477Z"
          fill="#6D6F71"/>
    <path d="M87.4162 15.7144H86.5195V20.1925H87.4162V15.7144Z" fill="#6D6F71"/>
    <path d="M91.6302 20.2297L91.2577 19.184H89.3553L88.9828 20.2297H88.0488L89.8023 15.7517H90.8852L92.6386 20.2297H91.6302ZM90.9224 18.3273L90.2892 16.6111L89.6187 18.3273H90.9224Z"
          fill="#6D6F71"/>
    <path d="M31.2812 9.59202V6.00799H32.4759V9.55477C32.4759 10.5632 32.9602 11.0102 33.6706 11.0102C34.4183 11.0102 34.9025 10.6004 34.9025 9.92728C34.9025 9.14235 34.0431 8.99335 34.0431 8.06209H35.2378C35.275 8.5836 36.1345 8.80976 36.1345 10.0763C36.1345 11.271 35.126 12.1304 33.6706 12.1304C32.2524 12.0931 31.2812 11.2337 31.2812 9.59202Z"
          fill="#6D6F71"/>
    <path d="M36.8789 9.59203V9.21952H38.0736V9.55478C38.0736 10.5632 38.5578 11.0102 39.3055 11.0102C40.0532 11.0102 40.5002 10.5632 40.5002 9.85278C40.5002 8.47185 38.635 8.0621 38.635 6.41775V6.04524H39.8297V6.34325C39.8297 7.64968 41.7694 7.76143 41.7694 9.85278C41.7694 11.3082 40.7609 12.1676 39.3055 12.1676C37.8501 12.1676 36.8789 11.2337 36.8789 9.59203Z"
          fill="#6D6F71"/>
    <path d="M42.5137 9.85278V9.48027H43.7084V9.81553C43.7084 10.5632 44.1926 11.0102 44.8658 11.0102C45.5762 11.0102 46.0232 10.5632 46.0232 9.55477V8.62085C46.0232 7.79868 45.5017 7.53792 44.9775 7.53792C44.2671 7.53792 44.0064 7.98493 44.0064 8.43459V8.54635H42.8117V8.43459C42.8117 7.31442 43.6711 6.49491 44.7514 6.49491C45.1611 6.49491 45.7225 6.64391 46.0205 7.16542V6.00799H47.2152V9.59202C47.2152 11.271 46.244 12.0931 44.8259 12.0931C43.4848 12.0931 42.5137 11.2337 42.5137 9.85278Z"
          fill="#6D6F71"/>
    <path d="M48.0762 9.59203V9.21952H49.2708V9.55478C49.2708 10.5632 49.7551 11.0102 50.5028 11.0102C51.2505 11.0102 51.6975 10.5632 51.6975 9.85278C51.6975 8.47185 49.8323 8.0621 49.8323 6.41775V6.04524H51.0269V6.34325C51.0269 7.64968 52.9666 7.76143 52.9666 9.85278C52.9666 11.3082 51.9582 12.1676 50.5028 12.1676C49.0846 12.0931 48.0762 11.2337 48.0762 9.59203Z"
          fill="#6D6F71"/>
    <path d="M60.9146 10.0417V12.0186H59.6827V10.1534C59.6827 9.48292 59.3847 9.10775 58.8605 9.10775C58.3762 9.10775 57.9638 9.44301 57.9638 10.0789V11.3109H56.7319V10.0789C56.7319 9.48292 56.4339 9.10775 55.9097 9.10775C55.4255 9.10775 55.0503 9.44301 55.0503 10.1534V11.9814H53.8184V9.29401C53.8184 6.60665 55.758 6.01064 57.3279 6.01064H59.1186V7.13081H57.5141C56.2077 7.13081 55.162 7.54057 55.013 8.51175C55.2738 8.21374 55.6463 7.99024 56.096 7.99024C56.5802 7.99024 57.1044 8.25099 57.4024 8.92416C57.7749 8.25365 58.3363 7.99024 59.0068 7.99024C60.1297 7.98758 60.9146 8.847 60.9146 10.0417Z"
          fill="#6D6F71"/>
    <path d="M61.7715 9.59203V8.39735C61.7715 6.75566 62.7427 5.89624 64.0491 5.89624C64.7595 5.89624 65.5045 6.19424 65.8025 6.94191C66.175 6.19424 66.7737 5.89624 67.4815 5.89624C68.5271 5.89624 69.4956 6.75566 69.4956 8.13659V11.9814H68.301V8.13659C68.301 7.42617 67.8912 6.97916 67.3298 6.97916C66.7684 6.97916 66.3959 7.42617 66.3959 8.13659V9.55478C66.3959 11.1965 65.4247 12.0559 64.081 12.0559C62.7427 12.0931 61.7715 11.2337 61.7715 9.59203ZM65.2438 9.51753V8.39735C65.2438 7.42617 64.7595 6.97916 64.1236 6.97916C63.4903 6.97916 63.0034 7.42617 63.0034 8.39735V9.51753C63.0034 10.526 63.4877 10.973 64.1236 10.973C64.7595 10.973 65.2438 10.5632 65.2438 9.51753Z"
          fill="#6D6F71"/>
    <path d="M70.6191 9.92728V9.62927H71.8138V9.85278C71.8138 10.486 72.2981 10.973 73.083 10.973C73.8679 10.973 74.3149 10.675 74.3149 10.188C74.3149 9.66653 73.8307 9.47761 73.3438 9.47761H72.7105V8.39468H73.3438C73.8653 8.39468 74.2404 8.24568 74.2404 7.76142C74.2404 7.31442 73.8307 6.93925 73.083 6.93925C72.2981 6.93925 71.8138 7.42351 71.8138 7.98493V8.13393H70.6191V7.91043C70.6191 6.753 71.6276 5.81908 73.1203 5.81908C74.5012 5.81908 75.5096 6.6785 75.5096 7.68426C75.5096 8.31752 75.1371 8.69269 74.5757 8.87894C75.2462 8.9907 75.6214 9.47495 75.6214 10.1854C75.6214 11.231 74.6129 12.0133 73.1203 12.0133C71.5903 12.0931 70.6191 11.2337 70.6191 9.92728Z"
          fill="#6D6F71"/>
    <path d="M76.4395 9.85277V9.48026H77.6341V9.85277C77.6341 10.5632 78.1184 11.0102 78.7916 11.0102C79.502 11.0102 79.949 10.5632 79.949 9.59202V8.43459C79.949 7.46341 79.4647 7.01641 78.7916 7.01641C78.0811 7.01641 77.6341 7.46341 77.6341 8.17383V8.28558H76.4395V8.17383C76.4395 6.75565 77.4106 5.93348 78.8288 5.93348C80.2097 5.93348 81.1809 6.7929 81.1809 8.43459V9.62927C81.1809 11.3082 80.2097 12.1304 78.8288 12.1304C77.4106 12.0931 76.4395 11.2337 76.4395 9.85277Z"
          fill="#6D6F71"/>
    <path d="M82.0391 8.69801V7.95034C82.0391 6.75566 82.8612 5.89624 83.9415 5.89624C84.463 5.89624 85.1734 6.15699 85.4714 6.83016C85.7694 6.15965 86.4426 5.89624 86.9269 5.89624C87.3739 5.89624 88.047 6.15699 88.3078 6.83016C88.6431 6.15965 89.279 5.89624 89.875 5.89624C90.9579 5.89624 91.7402 6.75566 91.7402 7.95034V9.51753H90.5455V7.95034C90.5455 7.27983 90.2475 6.90466 89.7606 6.90466C89.3136 6.90466 88.9011 7.23992 88.9011 7.87584V9.33127H87.7065V7.87584C87.7065 7.27983 87.334 6.90466 86.8843 6.90466C86.4373 6.90466 86.0621 7.23992 86.0621 7.87584V9.33127H84.8674V7.87584C84.8674 7.27983 84.5694 6.90466 84.0825 6.90466C83.6355 6.90466 83.2603 7.23992 83.2603 7.95034V8.54635C83.2603 10.1135 83.9309 10.8612 86.0595 10.8612H89.9788V11.9814H85.8732C84.1304 11.9814 82.0391 11.3854 82.0391 8.69801Z"
          fill="#6D6F71"/>
    <path d="M99.8423 7.91309V11.9814H98.6104V8.02484C98.6104 7.35433 98.3124 6.97916 97.7882 6.97916C97.304 6.97916 96.8916 7.31442 96.8916 7.95034V10.4514H95.6596V7.95034C95.6596 7.35433 95.3616 6.97916 94.8375 6.97916C94.3532 6.97916 93.978 7.31442 93.978 8.02484V11.9814H92.7461V7.91309C92.7461 6.71841 93.6055 5.85899 94.723 5.85899C95.2818 5.85899 95.9922 6.11974 96.2902 6.79291C96.6255 6.1224 97.2614 5.85899 97.9319 5.85899C99.0973 5.8989 99.8423 6.75566 99.8423 7.91309Z"
          fill="#6D6F71"/>
    <path d="M101.074 9.59202V6.00799H102.269V9.55477C102.269 10.5632 102.753 11.0102 103.464 11.0102C104.211 11.0102 104.696 10.6004 104.696 9.92728C104.696 9.14235 103.836 8.99335 103.836 8.06209H105.031C105.068 8.5836 105.927 8.80976 105.927 10.0763C105.927 11.271 104.919 12.1304 103.464 12.1304C102.008 12.1304 101.074 11.2337 101.074 9.59202Z"
          fill="#6D6F71"/>
    <path d="M113.689 10.0417C113.689 11.2364 112.718 12.133 111.262 12.133C109.807 12.133 108.873 11.2736 108.873 10.0417C108.873 8.95875 109.621 8.17649 110.813 7.98758V7.57782C110.813 6.94456 110.065 6.94456 110.065 6.01064H111.26C111.26 6.56939 112.007 6.6439 112.007 7.39157V8.06208C113.019 8.28558 113.689 9.03325 113.689 10.0417ZM112.422 10.0044C112.422 9.37117 111.938 8.95875 111.228 8.95875C110.517 8.95875 110.07 9.40576 110.07 10.0044C110.07 10.6377 110.555 11.0874 111.228 11.0874C111.973 11.0474 112.422 10.6377 112.422 10.0044Z"
          fill="#6D6F71"/>
    <path d="M114.436 9.59203V9.21952H115.63V9.55478C115.63 10.5632 116.114 11.0102 116.862 11.0102C117.61 11.0102 118.057 10.5632 118.057 9.85278C118.057 8.47185 116.192 8.0621 116.192 6.41775V6.04524H117.386V6.34325C117.386 7.64968 119.326 7.76143 119.326 9.85278C119.326 11.3082 118.318 12.1676 116.862 12.1676C115.407 12.0931 114.436 11.2337 114.436 9.59203Z"
          fill="#6D6F71"/>
    <path d="M120.146 10.0044V7.72682C120.146 6.60665 121.192 6.01064 122.201 6.01064H124.553V7.01906H122.387C121.865 7.01906 121.341 7.27982 121.341 7.84124V8.62616C121.565 8.25365 122.012 7.95565 122.797 7.95565C123.917 7.95565 124.925 8.77782 124.925 10.0098C124.925 11.2044 123.917 12.1011 122.536 12.1011C121.118 12.0931 120.146 11.2337 120.146 10.0044ZM123.693 10.0044C123.693 9.40842 123.209 8.95875 122.536 8.95875C121.825 8.95875 121.341 9.40576 121.341 10.0044C121.341 10.6377 121.825 11.0874 122.536 11.0874C123.244 11.0474 123.693 10.6377 123.693 10.0044Z"
          fill="#6D6F71"/>
    <path d="M125.67 9.89003V9.62927H126.865V9.81553C126.865 10.5259 127.349 10.973 128.134 10.973C128.919 10.973 129.366 10.6749 129.366 10.0018C129.366 9.36852 128.881 9.10511 128.097 9.10511H127.575V8.02218H128.208C128.919 8.02218 129.217 7.72417 129.217 7.08825V5.96808H130.411V7.23726C130.411 7.87051 130.039 8.32018 129.366 8.54369C130.036 8.72994 130.56 9.17695 130.56 10.1481C130.56 11.231 129.552 12.0878 128.059 12.0878C126.641 12.0931 125.67 11.2337 125.67 9.89003Z"
          fill="#6D6F71"/>
    <path d="M131.605 8.3601C131.605 6.75566 132.577 5.89624 133.92 5.89624C135.264 5.89624 136.235 6.75566 136.235 8.3601V11.9814H135.041V8.3601C135.041 7.42617 134.556 6.97916 133.92 6.97916C133.284 6.97916 132.8 7.42617 132.8 8.3601V11.9814H131.605V8.3601Z"
          fill="#6D6F71"/>
</svg>
