<svg width="20" height="19" viewBox="0 0 20 19" fill="none" xmlns="http://www.w3.org/2000/svg">
    <path d="M4.72414 4.54098L3.7931 1H1M4.72414 4.54098H19L16.9676 12.7538C16.7037 13.8201 15.703 14.5738 14.5509 14.5738H9.42834C8.30179 14.5738 7.31647 13.8526 7.02821 12.8172L4.72414 4.54098Z" stroke="#383838" stroke-width="1.5" stroke-linecap="round" stroke-linejoin="round"/>
    <path d="M7.51741 18.9998C8.20301 18.9998 8.75879 18.4714 8.75879 17.8195C8.75879 17.1676 8.20301 16.6392 7.51741 16.6392C6.83182 16.6392 6.27603 17.1676 6.27603 17.8195C6.27603 18.4714 6.83182 18.9998 7.51741 18.9998Z" fill="#383838"/>
    <path d="M16.2072 18.9998C16.8928 18.9998 17.4486 18.4714 17.4486 17.8195C17.4486 17.1676 16.8928 16.6392 16.2072 16.6392C15.5216 16.6392 14.9658 17.1676 14.9658 17.8195C14.9658 18.4714 15.5216 18.9998 16.2072 18.9998Z" fill="#383838"/>
</svg>
