<svg width="16" height="16" viewBox="0 0 16 16" fill="none" xmlns="http://www.w3.org/2000/svg">
    <path d="M2.75024 15.2502H13.2502C14.3548 15.2502 15.2502 14.3548 15.2502 13.2502V4.18322C15.2502 3.89772 15.1891 3.61553 15.071 3.35561L14.5332 2.17239C14.2086 1.45841 13.4967 1 12.7124 1H3.28807C2.50378 1 1.79188 1.45841 1.46734 2.1724L0.929514 3.35561C0.811374 3.61553 0.750244 3.89772 0.750244 4.18322V13.2502C0.750244 14.3548 1.64568 15.2502 2.75024 15.2502Z" stroke="white" stroke-width="1.5" stroke-linecap="round" stroke-linejoin="round"/>
    <path d="M5.5 3.75C5.5 4.99264 4.5 6.25 3 6.25C1.5 6.25 0.75 4.99264 0.75 3.75" stroke="white" stroke-width="1.5" stroke-linecap="round" stroke-linejoin="round"/>
    <path d="M15.25 3.75C15.25 4.99264 14.5 6.25 13 6.25C11.5 6.25 10.5 4.99264 10.5 3.75" stroke="white" stroke-width="1.5" stroke-linecap="round" stroke-linejoin="round"/>
    <path d="M10.5 3.75C10.5 4.99264 9.5 6.25 8 6.25C6.5 6.25 5.5 4.99264 5.5 3.75" stroke="white" stroke-width="1.5" stroke-linecap="round" stroke-linejoin="round"/>
    <path d="M5.74963 11.7493C5.74963 10.6447 6.6451 9.74927 7.7496 9.74927H8.2496C9.3542 9.74927 10.2496 10.6447 10.2496 11.7493V15.2493H5.74963V11.7493Z" stroke="white" stroke-width="1.5" stroke-linecap="round" stroke-linejoin="round"/>
</svg>
