<svg width="24" height="18" viewBox="0 0 24 18" fill="none" xmlns="http://www.w3.org/2000/svg">
    <g clip-path="url(#clip0_3862_1884)">
        <path d="M0 0H24V18H0V0Z" fill="white"/>
        <path d="M10.2 0H13.8V18H10.2V0Z" fill="#FF0000"/>
        <path d="M0 7.20001H24V10.8H0V7.20001Z" fill="#FF0000"/>
        <g style="mix-blend-mode:multiply">
            <path fill-rule="evenodd" clip-rule="evenodd"
                  d="M5.50502 13.9913C5.54252 13.3613 5.65502 12.825 5.65502 12.825C5.65502 12.825 5.28752 12.8625 5.10002 12.8625C4.91627 12.8625 4.54502 12.825 4.54502 12.825C4.54502 12.825 4.65752 13.3613 4.69502 13.995C4.06127 13.9575 3.52502 13.845 3.52502 13.845C3.52502 13.845 3.56252 14.1225 3.56252 14.4C3.56252 14.6775 3.52502 14.955 3.52502 14.955C3.52502 14.955 4.06127 14.8425 4.69502 14.805C4.65752 15.4388 4.54502 15.975 4.54502 15.975C4.54502 15.975 4.82252 15.9375 5.10002 15.9375C5.37752 15.9375 5.65502 15.975 5.65502 15.975C5.65502 15.975 5.54252 15.4388 5.50502 14.805C6.13877 14.8425 6.67502 14.955 6.67502 14.955C6.67502 14.955 6.63752 14.5875 6.63752 14.4C6.63752 14.2163 6.67502 13.845 6.67502 13.845C6.67502 13.845 6.13877 13.9575 5.50877 13.995L5.50502 13.9913ZM19.305 3.19127C19.3425 2.56127 19.455 2.02502 19.455 2.02502C19.455 2.02502 19.0875 2.06252 18.9 2.06252C18.7163 2.06252 18.345 2.02502 18.345 2.02502C18.345 2.02502 18.4575 2.56127 18.495 3.19127C17.8613 3.15377 17.325 3.04502 17.325 3.04502C17.325 3.04502 17.3625 3.32252 17.3625 3.60002C17.3625 3.87752 17.325 4.15502 17.325 4.15502C17.325 4.15502 17.8613 4.04252 18.495 4.00502C18.4575 4.63877 18.345 5.17502 18.345 5.17502C18.345 5.17502 18.6225 5.13752 18.9 5.13752C19.1775 5.13752 19.455 5.17502 19.455 5.17502C19.455 5.17502 19.3425 4.63877 19.305 4.00877C19.9388 4.04627 20.475 4.15877 20.475 4.15877C20.475 4.15877 20.4375 3.78377 20.4375 3.60002C20.4375 3.41627 20.475 3.04502 20.475 3.04502C20.475 3.04502 19.9388 3.15752 19.305 3.19502V3.19127ZM5.50502 3.19127C5.54252 2.56127 5.65502 2.02502 5.65502 2.02502C5.65502 2.02502 5.28752 2.06252 5.10002 2.06252C4.91627 2.06252 4.54502 2.02502 4.54502 2.02502C4.54502 2.02502 4.65752 2.56127 4.69502 3.19502C4.06127 3.15752 3.52502 3.04502 3.52502 3.04502C3.52502 3.04502 3.56252 3.32252 3.56252 3.60002C3.56252 3.87752 3.52502 4.15502 3.52502 4.15502C3.52502 4.15502 4.06127 4.04252 4.69502 4.00502C4.65752 4.63877 4.54502 5.17502 4.54502 5.17502C4.54502 5.17502 4.82252 5.13752 5.10002 5.13752C5.37752 5.13752 5.65502 5.17502 5.65502 5.17502C5.65502 5.17502 5.54252 4.63877 5.50502 4.00502C6.13877 4.04252 6.67502 4.15502 6.67502 4.15502C6.67502 4.15502 6.63752 3.78752 6.63752 3.60002C6.63752 3.41627 6.67502 3.04502 6.67502 3.04502C6.67502 3.04502 6.13877 3.15752 5.50877 3.19502L5.50502 3.19127ZM19.305 13.9913C19.3425 13.3613 19.455 12.825 19.455 12.825C19.455 12.825 19.0875 12.8625 18.9 12.8625C18.7163 12.8625 18.345 12.825 18.345 12.825C18.345 12.825 18.4575 13.3613 18.495 13.995C17.8613 13.9575 17.325 13.845 17.325 13.845C17.325 13.845 17.3625 14.1225 17.3625 14.4C17.3625 14.6775 17.325 14.955 17.325 14.955C17.325 14.955 17.8613 14.8425 18.495 14.805C18.4575 15.4388 18.345 15.975 18.345 15.975C18.345 15.975 18.6225 15.9375 18.9 15.9375C19.1775 15.9375 19.455 15.975 19.455 15.975C19.455 15.975 19.3425 15.4388 19.305 14.805C19.9388 14.8425 20.475 14.955 20.475 14.955C20.475 14.955 20.4375 14.5875 20.4375 14.4C20.4375 14.2163 20.475 13.845 20.475 13.845C20.475 13.845 19.9388 13.9575 19.305 13.995V13.9913Z"
                  fill="#FF0000"/>
        </g>
    </g>
    <defs>
        <clipPath id="clip0_3862_1884">
            <rect width="24" height="18" rx="2" fill="white"/>
        </clipPath>
    </defs>
</svg>
