<svg width="18" height="15" viewBox="0 0 18 15" fill="none" xmlns="http://www.w3.org/2000/svg">
    <path d="M17.0002 3.59985H12.4666V1.19985C12.4666 0.98771 12.3824 0.784276 12.2324 0.634276C12.0824 0.484142 11.8788 0.399902 11.6666 0.399902H6.33384C6.12169 0.399902 5.91812 0.484142 5.76812 0.634276C5.61812 0.784276 5.53388 0.987728 5.53388 1.19985V6.79974L1.00028 6.79987C0.788007 6.79987 0.584569 6.88411 0.434569 7.03411C0.284569 7.18411 0.200195 7.38767 0.200195 7.59983V13.9999C0.200195 14.2121 0.284569 14.4155 0.434569 14.5655C0.584569 14.7157 0.78802 14.7999 1.00028 14.7999H17.0001C17.2123 14.7999 17.4158 14.7157 17.5658 14.5655C17.7158 14.4155 17.8001 14.2121 17.8001 13.9999V4.39994C17.8001 4.18767 17.7158 3.98423 17.5658 3.83423C17.4158 3.68423 17.2125 3.59985 17.0002 3.59985ZM5.53402 13.1999H1.80031V8.39985H5.53402V13.1999ZM10.8668 4.40008V13.1999H7.13379V2.00008H10.8668V4.40008ZM16.2003 13.1999H12.4666V5.19997H16.2003V13.1999Z"
          fill="#383838"/>
</svg>
