<svg width="54" height="50" viewBox="0 0 54 50" fill="none" xmlns="http://www.w3.org/2000/svg">
    <path fill-rule="evenodd" clip-rule="evenodd"
          d="M33.3963 15.3231C32.8272 13.6465 30.944 12.7934 30.944 12.7934L22.8941 9.08789C23.6259 12.217 25.1936 14.2065 26.9337 15.4779C26.9857 15.5504 27.0345 15.6129 27.0898 15.6821C25.3758 16.3244 23.8926 16.0115 22.4583 15.5438L19.401 14.4305L19.3815 14.5952L22.442 16.0741C22.442 16.1795 22.442 16.2882 22.4193 16.4035L19.0237 16.4891L19.0042 16.667L18.9521 17.1314L27.6395 18.1195L30.6513 18.4489C31.5313 18.5448 32.4199 18.3776 33.2071 17.9678C33.9944 17.5581 34.6459 16.9238 35.0811 16.1432C34.7038 15.4944 34.0956 15.3363 33.3963 15.3231Z"
          fill="#806EB2"/>
    <path fill-rule="evenodd" clip-rule="evenodd"
          d="M29.8314 27.2793C30.4396 24.8682 27.6978 23.7813 27.6978 23.7813L21.1408 21.1265C21.5904 22.8802 22.5736 24.4463 23.9509 25.6028C24.7283 26.2071 25.3897 26.9506 25.9024 27.7964C26.2276 28.3564 26.413 28.8307 26.335 29.0843C26.2114 29.5059 24.6925 30.0955 22.8256 29.9737L19.778 29.776V29.9901L22.4645 30.7938L22.4353 31.2319L21.8075 31.5975L19.2056 32.892V33.1357L22.2759 32.421C23.7369 32.0863 25.2211 31.8661 26.7155 31.7622L25.2551 38.3828C28.7515 37.309 30.1664 34.8518 30.7258 32.8063C30.958 31.9532 31.0783 31.0727 31.0836 30.1878C31.3035 29.5718 31.5677 28.9729 31.8739 28.3959L32.1601 27.9051C31.5942 26.8116 29.8314 27.2793 29.8314 27.2793Z"
          fill="#806EB2"/>
    <path fill-rule="evenodd" clip-rule="evenodd"
          d="M13.7353 40.6325C13.7203 39.7961 13.4524 38.9845 12.9678 38.3071L8.85665 32.7866C8.3621 34.461 8.39965 36.2504 8.96398 37.9019C9.21527 38.5809 9.38136 39.2891 9.45835 40.01C8.82111 39.969 8.18216 40.0563 7.57843 40.2669L0.608398 42.9415C2.1903 43.9782 4.05397 44.4852 5.93594 44.3907C6.71202 44.3339 7.49207 44.3748 8.25819 44.5126C7.13609 45.8894 5.74079 46.4131 4.29995 46.7557L1.08 47.4375L1.15156 47.589L4.55364 47.2234L4.7065 47.51L1.82157 49.4105L1.89637 49.5752L2.09477 50.0001L10.1121 46.1826L12.8865 44.865C13.4973 44.5729 14.0363 44.1467 14.4644 43.6175C14.8925 43.0882 15.199 42.4691 15.3616 41.8051C15.4706 41.3751 15.5167 40.9311 15.4982 40.4876C14.877 40.1648 14.311 40.313 13.7353 40.6325Z"
          fill="#806EB2"/>
    <path fill-rule="evenodd" clip-rule="evenodd"
          d="M14.158 21.5679C14.5385 17.5198 2.12386 22.5034 2.12386 22.5034C3.25572 22.5231 8.41738 23.2543 8.27102 23.564C6.75862 26.838 0 27.141 0 27.141L0.107332 27.6648L6.35206 27.5396L6.54721 27.869L4.77462 29.3216L4.82015 29.5389L6.70658 28.5047C7.66281 27.9579 11.5267 27.6384 14.5678 25.0396C15.1793 24.5159 17.2186 22.6055 17.5796 22.342C16.6234 20.7412 15.4492 21.0475 14.158 21.5679Z"
          fill="#806EB2"/>
    <path fill-rule="evenodd" clip-rule="evenodd"
          d="M1.76953 11.7589V11.9269L5.20413 10.28C7.03202 9.69699 9.25345 11.5745 12.0018 9.10411C12.4669 8.68579 14.3988 7.67788 14.7143 7.53625C14.2915 6.29119 12.5157 6.3373 11.5757 6.47235L10.1479 2.09487L9.72831 2.17392C9.72831 7.9348 10.4308 0 3.14532 0C3.07377 0 3.01847 0.0428195 3.05425 0.105402L7.24668 8.33994L4.31946 8.48158L0.608398 8.33665V8.75496L4.49184 9.95062L1.76953 11.7589Z"
          fill="#806EB2"/>
    <path fill-rule="evenodd" clip-rule="evenodd"
          d="M50.6825 22.9543C49.4238 20.8101 46.4543 21.5742 46.4543 21.5742L38.2841 23.6197C42.6359 24.9372 44.4898 25.4511 43.6052 25.9254L35.5098 26.3865L35.5423 26.9366L40.7462 28.208L37.3019 30.7969V31.0242L41.696 28.5769C42.7432 28.1717 46.5747 29.7528 50.5492 26.5215C51.1997 26.0011 53.5935 24.4695 54 24.2587C53.2975 22.4998 52.0681 22.6283 50.6825 22.9543Z"
          fill="#613493"/>
</svg>
