<svg width="20" height="16" viewBox="0 0 20 16" fill="none" xmlns="http://www.w3.org/2000/svg">
    <path d="M19 2.12C19 1.50145 18.4442 1 17.7586 1H2.24138C1.55579 1 1 1.50144 1 2.12V3.57114C1 4.09052 1.40761 4.52591 1.91898 4.7644C3.21651 5.36952 4.10345 6.59126 4.10345 8C4.10345 9.40874 3.21651 10.6304 1.91898 11.2356C1.40761 11.4741 1 11.9095 1 12.4288V13.88C1 14.4986 1.55578 15 2.24138 15H17.7586C18.4442 15 19 14.4986 19 13.88V12.4288C19 11.9095 18.5923 11.4741 18.081 11.2356C16.7835 10.6304 15.8966 9.40874 15.8966 8C15.8966 6.59126 16.7835 5.36952 18.081 4.7644C18.5923 4.52591 19 4.09052 19 3.57114V2.12Z"
          stroke="#383838" stroke-width="1.5" stroke-linecap="round" stroke-linejoin="round"/>
</svg>
