<svg width="20" height="19" viewBox="0 0 20 19" fill="none" xmlns="http://www.w3.org/2000/svg">
    <path d="M17.5003 10.0922L10.0003 17.5501L2.5003 10.0922C2.00561 9.60892 1.61594 9.028 1.35585 8.38605C1.09575 7.74411 0.970863 7.05505 0.989039 6.36226C1.00721 5.66947 1.16806 4.98796 1.46146 4.36065C1.75485 3.73335 2.17444 3.17382 2.69379 2.71732C3.21314 2.26082 3.82101 1.91723 4.47911 1.70819C5.13722 1.49914 5.83131 1.42918 6.51767 1.50269C7.20403 1.5762 7.8678 1.7916 8.46718 2.13532C9.06655 2.47905 9.58855 2.94365 10.0003 3.49987C10.4138 2.94769 10.9364 2.48714 11.5354 2.14707C12.1344 1.80699 12.7968 1.5947 13.4812 1.52349C14.1657 1.45227 14.8574 1.52367 15.5131 1.7332C16.1688 1.94273 16.7743 2.28589 17.2919 2.7412C17.8094 3.19651 18.2277 3.75418 18.5207 4.37928C18.8137 5.00439 18.975 5.68349 18.9946 6.37408C19.0142 7.06467 18.8916 7.75188 18.6344 8.3927C18.3773 9.03352 17.9912 9.61415 17.5003 10.0983"
          stroke="#383838" stroke-width="1.5" stroke-linecap="round" stroke-linejoin="round"/>
    <path d="M9.99985 3.4939L6.70685 6.80012C6.51938 6.9884 6.41406 7.24373 6.41406 7.50996C6.41406 7.77619 6.51938 8.03152 6.70685 8.2198L7.24985 8.76498C7.93985 9.45775 9.05985 9.45775 9.74985 8.76498L10.7498 7.76096C11.3466 7.16184 12.1559 6.82525 12.9998 6.82525C13.8438 6.82525 14.6531 7.16184 15.2498 7.76096L17.4998 10.02"
          stroke="#383838" stroke-width="1.5" stroke-linecap="round" stroke-linejoin="round"/>
    <path d="M10.5 13.0321L12.5 15.0401" stroke="#383838" stroke-width="1.5" stroke-linecap="round"
          stroke-linejoin="round"/>
    <path d="M13 10.522L15 12.53" stroke="#383838" stroke-width="1.5" stroke-linecap="round" stroke-linejoin="round"/>
</svg>
