<svg width="15" height="19" viewBox="0 0 15 19" fill="none" xmlns="http://www.w3.org/2000/svg">
    <path d="M14.6511 13.2152L12.4574 12.1219H12.4576C12.2822 12.0344 12.076 12.0344 11.9007 12.1219L9.71394 13.2152C9.60972 13.2664 9.52183 13.3456 9.46029 13.444C9.39859 13.5424 9.36565 13.6559 9.36505 13.7719C9.36505 18.7226 12.0483 18.7832 12.1825 18.7832C12.3167 18.7832 15 18.7296 15 13.7719C14.9994 13.6559 14.9664 13.5424 14.9047 13.444C14.8432 13.3456 14.7553 13.2664 14.6511 13.2152H14.6511ZM12.1825 17.5284C11.6594 17.5284 10.6932 16.7435 10.6061 14.1743L12.1825 13.3761L13.7389 14.1543C13.6516 16.7705 12.6924 17.5016 12.1825 17.5284Z"
          fill="#383838"/>
    <path d="M13.1216 1.6194e-05H4.3538C4.27099 -0.000582755 4.18894 0.015439 4.11242 0.0470351C4.08652 0.0630571 4.06181 0.0808756 4.0386 0.10064C3.99293 0.122202 3.95011 0.149154 3.91118 0.1812L0.15457 3.93781V3.97809V3.97794C0.0516999 4.08635 -0.00370234 4.23114 0.000192269 4.38043V16.9049C0.000192269 17.3984 0.194401 17.8722 0.540875 18.2236C0.887368 18.5752 1.35813 18.7761 1.85166 18.7832H8.11025C8.33441 18.7832 8.54149 18.6637 8.6535 18.4696C8.7655 18.2756 8.7655 18.0364 8.6535 17.8424C8.54149 17.6483 8.33441 17.5287 8.11025 17.5287H1.85166C1.6862 17.5287 1.52748 17.463 1.41053 17.346C1.29358 17.2291 1.22785 17.0704 1.22785 16.9049V5.01139H4.36067H4.36052C4.52598 5.01139 4.6847 4.94566 4.80165 4.82856C4.91875 4.71162 4.98448 4.5529 4.98448 4.38743V1.25476H13.1214C13.2868 1.25476 13.4455 1.3205 13.5625 1.43744C13.6794 1.55439 13.7452 1.71311 13.7452 1.87858V11.2701C13.7452 11.4943 13.8648 11.7012 14.0589 11.8133C14.2529 11.9253 14.4921 11.9253 14.6861 11.8133C14.8802 11.7012 14.9997 11.4943 14.9997 11.2701V1.87858C14.9997 1.3804 14.8017 0.90274 14.4495 0.550424C14.0972 0.198242 13.6195 0.000272824 13.1214 0.000272824L13.1216 1.6194e-05ZM2.12015 3.75662L3.73013 2.13316V3.75662H2.12015Z"
          fill="#383838"/>
    <path d="M9.95536 7.5132C9.95536 6.84958 9.69182 6.21318 9.22255 5.74391C8.75328 5.27465 8.11688 5.01111 7.45326 5.01111C6.78965 5.01111 6.15325 5.27465 5.68398 5.74391C5.21471 6.21318 4.95117 6.84958 4.95117 7.5132C4.95117 8.17682 5.21471 8.81322 5.68398 9.28249C6.15325 9.75176 6.78965 10.0153 7.45326 10.0153C8.11631 10.0136 8.75178 9.74936 9.22059 9.28053C9.6894 8.8117 9.95371 8.1762 9.95536 7.5132V7.5132ZM6.19875 7.5132C6.19875 7.18048 6.33097 6.86139 6.5662 6.62614C6.80144 6.39089 7.12053 6.25869 7.45326 6.25869C7.78599 6.25869 8.10507 6.39091 8.34032 6.62614C8.57557 6.86138 8.70777 7.18047 8.70777 7.5132C8.70777 7.84593 8.57555 8.16501 8.34032 8.40026C8.10508 8.63551 7.78599 8.76771 7.45326 8.76771C7.12053 8.76771 6.80145 8.63549 6.5662 8.40026C6.33095 8.16502 6.19875 7.84593 6.19875 7.5132Z"
          fill="#383838"/>
    <path d="M9.98872 11.9004C9.98872 11.735 9.92299 11.5762 9.80604 11.4593C9.68909 11.3423 9.53037 11.2766 9.36491 11.2766H4.90374C4.67959 11.2766 4.47265 11.3961 4.36049 11.5902C4.24849 11.7842 4.24849 12.0234 4.36049 12.2174C4.47265 12.4115 4.67958 12.531 4.90374 12.531H9.36491C9.53157 12.531 9.69118 12.4643 9.80842 12.3459C9.92566 12.2274 9.9905 12.0671 9.9887 11.9004L9.98872 11.9004Z"
          fill="#383838"/>
    <path d="M4.90393 13.7787C4.67977 13.7787 4.47284 13.8983 4.36068 14.0924C4.24867 14.2864 4.24867 14.5254 4.36068 14.7195C4.47283 14.9135 4.67976 15.0332 4.90393 15.0332H7.48659C7.71075 15.0332 7.91768 14.9135 8.02985 14.7195C8.14185 14.5254 8.14185 14.2864 8.02985 14.0924C7.91769 13.8983 7.71076 13.7787 7.48659 13.7787H4.90393Z"
          fill="#383838"/>
</svg>
