<svg width="20" height="20" viewBox="0 0 20 20" fill="none" xmlns="http://www.w3.org/2000/svg">
    <path d="M11.3892 2.07176C11.3044 1.45752 10.7795 1 10.1595 1H9.84048C9.22054 1 8.69556 1.45752 8.61077 2.07176L8.50265 2.856C8.43363 3.35632 8.06382 3.75458 7.59445 3.9411C7.52469 3.96883 7.45543 3.99773 7.38686 4.02779C6.92407 4.23057 6.38061 4.21319 5.97639 3.91003L5.59458 3.62367C5.10036 3.253 4.40879 3.30215 3.97196 3.73898L3.73899 3.97196C3.30216 4.40879 3.253 5.10035 3.62367 5.59457L3.91003 5.97639C4.2132 6.3806 4.23057 6.92406 4.02779 7.38686C3.99773 7.45543 3.96883 7.52469 3.9411 7.59445C3.75458 8.06382 3.35632 8.43363 2.856 8.50265L2.07176 8.61077C1.45752 8.69556 1 9.22041 1 9.84048V10.1595C1 10.7795 1.45752 11.3044 2.07176 11.3892L2.856 11.4974C3.35632 11.5664 3.75458 11.9362 3.9411 12.4055C3.96883 12.4753 3.99773 12.5446 4.02779 12.6131C4.23057 13.0759 4.21319 13.6194 3.91003 14.0236L3.62367 14.4054C3.253 14.8996 3.30215 15.5912 3.73898 16.028L3.97196 16.261C4.40879 16.6979 5.10035 16.747 5.59457 16.3763L5.97639 16.09C6.3806 15.7868 6.92406 15.7694 7.38685 15.9723C7.45543 16.0023 7.52469 16.0311 7.59445 16.0589C8.06382 16.2454 8.43363 16.6437 8.50265 17.144L8.61077 17.9282C8.69556 18.5424 9.22054 19 9.84048 19H10.1595C10.7795 19 11.3044 18.5424 11.3892 17.9282L11.4974 17.144C11.5664 16.6437 11.9362 16.2454 12.4055 16.0589C12.4753 16.0311 12.5446 16.0023 12.6131 15.9722C13.0759 15.7694 13.6194 15.7868 14.0236 16.09L14.4054 16.3763C14.8996 16.747 15.5912 16.6979 16.028 16.261L16.261 16.028C16.6979 15.5912 16.747 14.8996 16.3763 14.4054L16.09 14.0236C15.7868 13.6194 15.7694 13.0759 15.9723 12.6131C16.0023 12.5446 16.0311 12.4753 16.0589 12.4055C16.2454 11.9362 16.6437 11.5664 17.144 11.4974L17.9282 11.3892C18.5424 11.3044 19 10.7795 19 10.1595V9.84048C19 9.22054 18.5424 8.69556 17.9282 8.61077L17.144 8.50265C16.6437 8.43363 16.2454 8.06382 16.0589 7.59445C16.0311 7.52469 16.0023 7.45543 15.9722 7.38685C15.7694 6.92406 15.7868 6.3806 16.09 5.97638L16.3763 5.59459C16.747 5.10037 16.6979 4.40882 16.261 3.97199L16.028 3.739C15.5912 3.30218 14.8996 3.25303 14.4054 3.62369L14.0236 3.91003C13.6194 4.2132 13.0759 4.23057 12.6131 4.02779C12.5446 3.99773 12.4753 3.96883 12.4055 3.9411C11.9362 3.75458 11.5664 3.35632 11.4974 2.856L11.3892 2.07176Z"
          stroke="#383838" stroke-width="1.5" stroke-linecap="round" stroke-linejoin="round"/>
    <path d="M11.5517 9.99997C11.5517 10.857 10.857 11.5517 9.99997 11.5517C9.14292 11.5517 8.44824 10.857 8.44824 9.99997C8.44824 9.14292 9.14292 8.44824 9.99997 8.44824C10.857 8.44824 11.5517 9.14292 11.5517 9.99997Z"
          stroke="#383838" stroke-width="1.5" stroke-linecap="round" stroke-linejoin="round"/>
</svg>
