<svg width="20" height="20" viewBox="0 0 20 20" fill="none" xmlns="http://www.w3.org/2000/svg">
    <path d="M18.9999 7.51724C18.9999 10.9048 17.262 14.0345 15.5862 14.0345C13.9103 14.0345 12.1724 10.9048 12.1724 7.51724C12.1724 4.12959 13.9103 1 15.5862 1C17.262 1 18.9999 4.12959 18.9999 7.51724Z" stroke="#8338EC" stroke-width="1.5"/>
    <path d="M15.5862 14.0345C15.5862 14.0345 5.03448 11.8621 3.7931 11.5517C2.55172 11.2414 1 9.6143 1 7.51724C1 5.42013 2.55172 3.7931 3.7931 3.48276C5.03448 3.17241 15.5862 1 15.5862 1" stroke="#8338EC" stroke-width="1.5"/>
    <path d="M3.48291 11.8621V16.5172C3.48291 17.8885 4.59448 19 5.96567 19H6.58636C7.95758 19 9.06911 17.8885 9.06911 16.5172V13.1034" stroke="#8338EC" stroke-width="1.5"/>
</svg>
