<svg width="24" height="24" viewBox="0 0 24 24" fill="none" xmlns="http://www.w3.org/2000/svg">
    <path d="M21.0001 9.51724C21.0001 12.9048 19.2621 16.0345 17.5863 16.0345C15.9104 16.0345 14.1725 12.9048 14.1725 9.51724C14.1725 6.12959 15.9104 3 17.5863 3C19.2621 3 21.0001 6.12959 21.0001 9.51724Z"
          stroke="#E35A43" stroke-width="1.5"/>
    <path d="M17.5862 16.0345C17.5862 16.0345 7.03448 13.8621 5.7931 13.5517C4.55172 13.2414 3 11.6143 3 9.51724C3 7.42013 4.55172 5.7931 5.7931 5.48276C7.03448 5.17241 17.5862 3 17.5862 3"
          stroke="#E35A43" stroke-width="1.5"/>
    <path d="M5.48285 13.8621V18.5172C5.48285 19.8885 6.59442 21 7.96561 21H8.5863C9.95752 21 11.0691 19.8885 11.0691 18.5172V15.1034"
          stroke="#E35A43" stroke-width="1.5"/>
</svg>
