<svg width="24" height="24" viewBox="0 0 24 24" fill="none" xmlns="http://www.w3.org/2000/svg">
    <path d="M19.9997 5.59985H15.4661V3.19985C15.4661 2.98771 15.3819 2.78428 15.2319 2.63428C15.0819 2.48414 14.8783 2.3999 14.6662 2.3999H9.33335C9.12121 2.3999 8.91763 2.48414 8.76763 2.63428C8.61763 2.78428 8.53339 2.98773 8.53339 3.19985V8.79974L3.9998 8.79987C3.78752 8.79987 3.58408 8.88411 3.43408 9.03411C3.28408 9.18411 3.19971 9.38767 3.19971 9.59983V15.9999C3.19971 16.2121 3.28408 16.4155 3.43408 16.5655C3.58408 16.7157 3.78753 16.7999 3.9998 16.7999H19.9996C20.2118 16.7999 20.4153 16.7157 20.5653 16.5655C20.7153 16.4155 20.7997 16.2121 20.7997 15.9999V6.39994C20.7997 6.18767 20.7153 5.98423 20.5653 5.83423C20.4153 5.68423 20.2118 5.59985 19.9996 5.59985H19.9997ZM8.53353 15.1999H4.79982V10.3999H8.53353V15.1999ZM13.8663 6.40008V15.1999H10.1333V4.00008H13.8663V6.40008ZM19.1998 15.1999H15.4661V7.19997H19.1998V15.1999Z"
          fill="black"/>
</svg>
